<svg xmlns="http://www.w3.org/2000/svg" version="1.1" xmlns:xlink="http://www.w3.org/1999/xlink" xmlns:svgjs="http://svgjs.dev/svgjs" width="1500" height="1500" viewBox="0 0 1500 1500"><rect width="1500" height="1500" fill="#3d9970"></rect><g transform="matrix(0.6666666666666666,0,0,0.6666666666666666,250.19289605040495,437.9195681511471)"><svg viewBox="0 0 395 247" data-background-color="#3d9970" preserveAspectRatio="xMidYMid meet" height="937" width="1500" xmlns="http://www.w3.org/2000/svg" xmlns:xlink="http://www.w3.org/1999/xlink"><g id="tight-bounds" transform="matrix(1,0,0,1,-0.07619393990995604,-0.09999999999999432)"><svg viewBox="0 0 395.1523878798199 247.2" height="247.2" width="395.1523878798199"><g><svg viewBox="0 0 395.5199999999999 247.42997131966246" height="247.2" width="395.1523878798199"><g transform="matrix(1,0,0,1,0,152.92164867369556)"><svg viewBox="0 0 395.5199999999999 94.50832264596691" height="94.50832264596691" width="395.5199999999999"><g id="textblocktransform"><svg viewBox="0 0 395.5199999999999 94.50832264596691" height="94.50832264596691" width="395.5199999999999" id="textblock"><g><svg viewBox="0 0 395.5199999999999 94.50832264596691" height="94.50832264596691" width="395.5199999999999"><g transform="matrix(1,0,0,1,0,0)"><svg width="395.5199999999999" viewBox="-3.5 -41.75 296.26 70.8" height="94.50832264596691" data-palette-color="#454545"><path d="M43.2-37.1L43.2-37.1Q40.6-33.35 37.4-27.6 34.2-21.85 32.3-17.95L32.3-17.95 30.4-14.05Q25.25-3.35 25.25 1.3L25.25 1.3Q25.25 1.4 25.28 1.7 25.3 2 25.3 2.2L25.3 2.2Q25.3 3 24.85 3L24.85 3Q24 3 23 1.53 22 0.05 22-2.4L22-2.4Q22-4.65 23.08-7.9 24.15-11.15 26.25-15.33 28.35-19.5 29.78-22.05 31.2-24.6 33.55-28.7L33.55-28.7Q33.7-29 33.7-29.15L33.7-29.15Q33.6-29.4 33.45-29.4L33.45-29.4Q33.15-29.4 32.85-29.15L32.85-29.15Q29.9-26.75 25.1-21 20.3-15.25 17-10.7L17-10.7 13.65-6.15Q12.85-4.95 12.35-4.95L12.35-4.95Q12.2-4.95 12.1-5.05 12-5.15 11.95-5.33 11.9-5.5 11.88-5.65 11.85-5.8 11.85-5.9L11.85-5.9 11.85-6Q12.2-9.1 12.88-14.65 13.55-20.2 14-24 14.45-27.8 14.45-27.9L14.45-27.9Q14.45-28.4 14.25-28.4L14.25-28.4Q14.15-28.4 13.98-28.25 13.8-28.1 13.7-27.95L13.7-27.95 13.6-27.8Q11.45-24.6 9-19.53 6.55-14.45 5.05-10.55L5.05-10.55Q3.95-7.75 2.8-5.43 1.65-3.1 0.78-1.83-0.1-0.55-0.83 0.33-1.55 1.2-1.95 1.5L-1.95 1.5-2.35 1.8Q-2.9 2.25-3.2 2.25-3.5 2.25-3.5 1.75L-3.5 1.75-3.45 1.3Q-2.95-1.35 0.93-8.8 4.8-16.25 8.45-22.4L8.45-22.4 12.1-28.5 14.85-33.25Q16.9-39.1 18-39.1L18-39.1Q18.75-39.1 18.75-36.55L18.75-36.55Q17.2-17.95 17.2-15.3L17.2-15.3Q17.2-14.55 17.5-14.55 17.8-14.55 18.2-15.1L18.2-15.1Q18.85-15.95 20-17.4 21.15-18.85 24.4-22.6 27.65-26.35 30.53-29.35 33.4-32.35 36.8-35.1 40.2-37.85 42.4-38.45L42.4-38.45Q42.9-38.55 43.05-38.55L43.05-38.55Q43.65-38.55 43.65-38.1L43.65-38.1Q43.65-37.7 43.2-37.1ZM40.7-7.1L40.7-7.1 42.8-11.2Q42.8-11.35 42.7-11.35 42.6-11.35 42.45-11.2L42.45-11.2Q40.6-9.05 38.55-6.98 36.5-4.9 35.4-3.9L35.4-3.9 34.3-2.9Q30.55 0.65 29 0.65L29 0.65Q28.3 0.65 28.3-0.25L28.3-0.25Q28.3-1.25 29.1-3.28 29.9-5.3 30.7-6.8L30.7-6.8 31.5-8.35Q35.7-16.2 37.7-18.85L37.7-18.85Q38.7-20.15 40.15-21.03 41.6-21.9 42.4-21.9L42.4-21.9Q42.9-21.9 42.9-21.55L42.9-21.55Q42.9-21.35 42.7-21L42.7-21Q42.6-20.8 40.65-17.68 38.7-14.55 37.5-12.3L37.5-12.3Q34.2-6.25 34.2-5.35L34.2-5.35Q34.2-5 34.5-5L34.5-5Q34.95-5 36.05-5.9L36.05-5.9Q39.3-8.7 43.2-13.45L43.2-13.45Q45.35-15.75 47.7-19.45L47.7-19.45Q48.35-20.45 49.62-21.18 50.9-21.9 51.95-21.9L51.95-21.9Q52.4-21.9 52.4-21.5L52.4-21.5 52-20.55Q51.3-19.3 48.87-15.08 46.45-10.85 46.15-10.3L46.15-10.3Q45.75-9.55 44.32-7.08 42.9-4.6 42.3-3.55L42.3-3.55Q45.45-6.1 47.5-7.95L47.5-7.95Q49.7-10.25 52.65-13.6L52.65-13.6Q52.8-13.75 52.9-13.75 53-13.75 53-13.55L53-13.55Q53-12.6 52.25-11.7L52.25-11.7Q50.05-9.3 48.45-7.6L48.45-7.6Q46.35-5.4 40.95-1.2L40.95-1.2 39.65 1.2Q30 18.95 26.35 24.3L26.35 24.3Q26 24.85 25.45 25.63 24.9 26.4 23.65 27.73 22.4 29.05 21.65 29.05L21.65 29.05Q20.45 29.05 20.45 25.6L20.45 25.6Q20.45 20.5 24.1 14.5L24.1 14.5Q28.05 8.05 36.3 1.25L36.3 1.25Q37.95-1.75 40.7-7.1ZM25.35 14.4L25.35 14.4Q24.95 15 24.4 15.98 23.85 16.95 22.9 19.33 21.95 21.7 21.95 23.3L21.95 23.3Q21.95 24.15 22.25 24.15L22.25 24.15Q22.5 24.15 23 23.68 23.5 23.2 23.85 22.7L23.85 22.7 24.2 22.2Q29.15 14.45 34.95 3.7L34.95 3.7Q28.45 9.4 25.35 14.4ZM77.54-20.7L77.54-20.7Q74.44-20.55 70.64-20.55L70.64-20.55 70.04-20.55Q62.99-7.75 61.64-3.2L61.64-3.2Q61.44-2.6 61.44-2.1L61.44-2.1Q61.44-0.6 64.09-0.6L64.09-0.6Q65.19-0.6 66.49-1.03 67.79-1.45 69.67-2.53 71.54-3.6 73.89-5.95 76.24-8.3 78.69-11.65L78.69-11.65Q78.99-12.2 79.59-12.2L79.59-12.2Q79.99-12.2 79.99-11.8L79.99-11.8Q79.99-11.7 79.89-11.4L79.89-11.4Q77.49-5.25 73.79-0.4L73.79-0.4Q73.49 0.3 72.29 0.5L72.29 0.5Q68.19 0.7 63.64 0.7L63.64 0.7Q58.44 0.7 55.24 0.35L55.24 0.35Q54.64 0.3 54.64-0.35L54.64-0.35Q54.64-0.75 54.84-1.15L54.84-1.15Q57.69-7.55 65.59-20.6L65.59-20.6 63.34-20.65Q62.69-20.65 62.69-21.05 62.69-21.45 63.12-21.78 63.54-22.1 63.99-22.1L63.99-22.1 66.54-22.1 72.59-31.8Q73.34-33.15 73.34-34.25L73.34-34.25Q73.34-35 73.02-35.55 72.69-36.1 72.34-36.3L72.34-36.3 71.99-36.5Q71.54-36.75 71.54-37.05L71.54-37.05Q71.54-37.25 71.72-37.4 71.89-37.55 72.09-37.6L72.09-37.6 72.29-37.65Q77.44-37.95 82.99-37.95L82.99-37.95Q87.59-37.95 90.39-37.7L90.39-37.7Q91.14-37.7 91.14-37.05L91.14-37.05Q91.14-36.9 90.99-36.5L90.99-36.5Q89.34-32.35 87.64-30L87.64-30Q87.39-29.75 87.09-29.75L87.09-29.75Q86.64-29.75 86.64-30.4L86.64-30.4Q86.89-31.35 86.89-32.45L86.89-32.45Q86.89-36.55 82.79-36.55L82.79-36.55 82.59-36.55Q80.04-36.55 78.94-35.15L78.94-35.15Q76.39-32 72.14-24.3L72.14-24.3Q71.64-23.45 70.89-22.15L70.89-22.15 78.39-22.15Q78.89-22.15 78.89-21.85 78.89-21.55 78.47-21.15 78.04-20.75 77.54-20.7ZM90.94-5.7L90.94-5.7Q90.04-3.25 88.09-1.58 86.14 0.1 84.47 0.7 82.79 1.3 81.44 1.3L81.44 1.3Q77.79 1.3 77.79-1.55L77.79-1.55Q77.79-4.45 80.99-6.8L80.99-6.8Q82.49-7.9 84.24-8.25L84.24-8.25Q84.49-8.25 84.49-8.05L84.49-8.05Q84.49-7.95 84.39-7.85L84.39-7.85Q83.14-6.9 82.02-4.9 80.89-2.9 80.89-1.4 80.89 0.1 82.14 0.1L82.14 0.1Q83.14 0.1 84.12-0.73 85.09-1.55 85.59-2.4L85.59-2.4 86.09-3.2Q87.09-4.8 87.77-8.3 88.44-11.8 88.64-14.5L88.64-14.5 88.79-17.2Q88.79-17.6 88.64-17.6L88.64-17.6 88.44-17.5 83.49-11.7Q82.94-11.05 82.74-11.05L82.74-11.05Q82.49-11.05 82.49-11.4L82.49-11.4Q82.49-12.05 82.84-12.4L82.84-12.4 83.29-12.95Q88.99-19.35 89.79-20.7L89.79-20.7Q90.54-21.85 91.99-22.7L91.99-22.7Q93.39-23.5 95.29-23.5L95.29-23.5Q95.79-23.5 95.79-23.1L95.79-23.1Q95.79-22.85 95.39-22.65L95.39-22.65Q95.24-22.6 95.02-22.43 94.79-22.25 94.22-21.6 93.64-20.95 93.19-20.1 92.74-19.25 92.39-17.73 92.04-16.2 92.04-14.35L92.04-14.35Q92.04-8.6 90.94-5.7ZM101.49-7.55L101.49-7.55Q103.59-9.65 107.04-13.6L107.04-13.6Q107.19-13.75 107.29-13.75 107.39-13.75 107.39-13.55L107.39-13.55Q107.39-12.6 106.64-11.7L106.64-11.7Q102.94-7.6 100.09-4.85L100.09-4.85Q94.09 0.95 92.14 0.95L92.14 0.95Q91.44 0.95 91.44 0.05L91.44 0.05Q91.44-1 92.24-3.1 93.04-5.2 93.84-6.8L93.84-6.8 94.64-8.35Q95.79-10.4 98.44-15.35 101.09-20.3 103.56-24.7 106.04-29.1 108.24-32.65L108.24-32.65 104.29-32.65Q103.79-32.65 103.79-32.9 103.79-33.15 104.19-33.4 104.59-33.65 105.04-33.65L105.04-33.65Q106.14-33.65 108.89-33.7L108.89-33.7Q111.34-37.55 113.09-39.8L113.09-39.8Q114.64-41.75 115.24-41.75L115.24-41.75Q115.59-41.75 115.59-41.3L115.59-41.3Q115.59-40.25 113.69-36.8L113.69-36.8 111.99-33.7 117.14-33.7Q117.59-33.7 117.59-33.45L117.59-33.45Q117.59-32.65 116.14-32.65L116.14-32.65 111.44-32.65Q99.89-10.75 99.29-9.7L99.29-9.7Q97.19-5.85 97.19-4.7L97.19-4.7Q97.19-4.35 97.44-4.35L97.44-4.35Q98.14-4.35 101.49-7.55ZM116.84-3.15L116.84-3.15Q112.69 0.65 111.14 0.65L111.14 0.65Q110.44 0.65 110.44-0.15L110.44-0.15Q110.44-1.15 111.31-3.2 112.19-5.25 113.09-6.8L113.09-6.8 113.99-8.35Q114.19-8.7 114.19-8.8 114.19-8.9 114.09-8.9L114.09-8.9Q113.89-8.9 113.34-8.35L113.34-8.35Q111.84-6.7 109.91-4.83 107.99-2.95 106.79-1.9L106.79-1.9 105.64-0.9Q103.69 0.6 102.64 0.6L102.64 0.6Q101.54 0.6 101.54-1.1L101.54-1.1Q101.54-1.95 102.01-3.7 102.49-5.45 102.74-6.05L102.74-6.05Q103.89-8.85 105.61-11.5 107.34-14.15 109.69-16.57 112.04-19 115.16-20.5 118.29-22 121.64-22L121.64-22Q124.44-22 124.44-21.15L124.44-21.15Q124.44-20.65 123.19-20.65L123.19-20.65Q118.59-20.65 114.56-16.73 110.54-12.8 108.04-7.7L108.04-7.7Q107.34-6.3 107.34-5.35L107.34-5.35Q107.34-4.8 107.69-4.8L107.69-4.8Q108.29-4.8 109.24-5.65L109.24-5.65Q109.84-6.2 110.86-7.1 111.89-8 114.19-10.55 116.49-13.1 117.84-15.3L117.84-15.3Q118.04-15.7 118.46-16.25 118.89-16.8 120.09-17.73 121.29-18.65 122.49-18.65L122.49-18.65Q123.14-18.65 123.14-18.3L123.14-18.3Q123.14-18.2 122.99-17.95L122.99-17.95Q122.79-17.55 121.86-15.95 120.94-14.35 120.14-12.93 119.34-11.5 118.44-9.83 117.54-8.15 117.01-6.95 116.49-5.75 116.49-5.35L116.49-5.35Q116.49-5.05 116.74-5.05L116.74-5.05Q117.49-5.05 120.39-7.95L120.39-7.95Q122.59-10.25 125.54-13.6L125.54-13.6Q125.69-13.75 125.79-13.75 125.89-13.75 125.89-13.55L125.89-13.55Q125.89-12.6 125.14-11.7L125.14-11.7Q120.24-6.25 116.84-3.15ZM129.48-7.55L129.48-7.55Q131.58-9.65 135.03-13.6L135.03-13.6Q135.18-13.75 135.28-13.75 135.38-13.75 135.38-13.55L135.38-13.55Q135.38-12.6 134.63-11.7L134.63-11.7Q130.93-7.6 128.08-4.85L128.08-4.85Q122.08 0.95 120.13 0.95L120.13 0.95Q119.43 0.95 119.43 0.05L119.43 0.05Q119.43-1 120.23-3.1 121.03-5.2 121.83-6.8L121.83-6.8 122.63-8.35Q123.78-10.4 126.43-15.35 129.08-20.3 131.56-24.7 134.03-29.1 136.23-32.65L136.23-32.65 132.28-32.65Q131.78-32.65 131.78-32.9 131.78-33.15 132.18-33.4 132.58-33.65 133.03-33.65L133.03-33.65Q134.13-33.65 136.88-33.7L136.88-33.7Q139.33-37.55 141.08-39.8L141.08-39.8Q142.63-41.75 143.23-41.75L143.23-41.75Q143.58-41.75 143.58-41.3L143.58-41.3Q143.58-40.25 141.68-36.8L141.68-36.8 139.98-33.7 145.13-33.7Q145.58-33.7 145.58-33.45L145.58-33.45Q145.58-32.65 144.13-32.65L144.13-32.65 139.43-32.65Q127.88-10.75 127.28-9.7L127.28-9.7Q125.18-5.85 125.18-4.7L125.18-4.7Q125.18-4.35 125.43-4.35L125.43-4.35Q126.13-4.35 129.48-7.55ZM144.03-16.95L144.03-16.95Q144.63-18.2 144.63-19.15L144.63-19.15Q144.63-19.95 144.13-19.95L144.13-19.95Q143.83-19.95 143.46-19.78 143.08-19.6 142.88-19.4L142.88-19.4 142.63-19.2Q141.08-17.85 138.76-14.28 136.43-10.7 136.43-9.7L136.43-9.7Q136.43-9.5 136.53-9.5L136.53-9.5Q136.83-9.5 137.86-10 138.88-10.5 140.81-12.35 142.73-14.2 144.03-16.95ZM141.78-5.5L141.78-5.5Q144.43-7.95 149.38-13.6L149.38-13.6Q149.53-13.75 149.63-13.75 149.73-13.75 149.73-13.55L149.73-13.55Q149.73-12.6 148.98-11.7L148.98-11.7Q145.28-7.6 142.43-4.85L142.43-4.85Q140.33-2.75 137.43-0.83 134.53 1.1 132.63 1.1L132.63 1.1Q130.33 1.1 130.33-2.1L130.33-2.1Q130.33-7.4 134.26-13.2 138.18-19 143.33-21.05L143.33-21.05Q145.48-21.95 147.23-21.95L147.23-21.95Q149.18-21.95 149.18-20.4L149.18-20.4Q149.18-17.5 145.08-13.75 140.98-10 135.88-8.05L135.88-8.05Q135.68-8 135.53-7.7L135.53-7.7Q134.78-5.65 134.78-4.05L134.78-4.05Q134.78-2.25 136.13-2.25L136.13-2.25Q138.28-2.25 141.78-5.5ZM196.83-37.1L196.83-37.1Q194.23-33.35 191.03-27.6 187.83-21.85 185.93-17.95L185.93-17.95 184.03-14.05Q178.88-3.35 178.88 1.3L178.88 1.3Q178.88 1.4 178.9 1.7 178.93 2 178.93 2.2L178.93 2.2Q178.93 3 178.48 3L178.48 3Q177.63 3 176.63 1.53 175.63 0.05 175.63-2.4L175.63-2.4Q175.63-4.65 176.7-7.9 177.78-11.15 179.88-15.33 181.98-19.5 183.4-22.05 184.83-24.6 187.18-28.7L187.18-28.7Q187.33-29 187.33-29.15L187.33-29.15Q187.23-29.4 187.08-29.4L187.08-29.4Q186.78-29.4 186.48-29.15L186.48-29.15Q183.53-26.75 178.73-21 173.93-15.25 170.63-10.7L170.63-10.7 167.28-6.15Q166.48-4.95 165.98-4.95L165.98-4.95Q165.83-4.95 165.73-5.05 165.63-5.15 165.58-5.33 165.53-5.5 165.5-5.65 165.48-5.8 165.48-5.9L165.48-5.9 165.48-6Q165.83-9.1 166.5-14.65 167.18-20.2 167.63-24 168.08-27.8 168.08-27.9L168.08-27.9Q168.08-28.4 167.88-28.4L167.88-28.4Q167.78-28.4 167.6-28.25 167.43-28.1 167.33-27.95L167.33-27.95 167.23-27.8Q165.08-24.6 162.63-19.53 160.18-14.45 158.68-10.55L158.68-10.55Q157.58-7.75 156.43-5.43 155.28-3.1 154.4-1.83 153.53-0.55 152.8 0.33 152.08 1.2 151.68 1.5L151.68 1.5 151.28 1.8Q150.73 2.25 150.43 2.25 150.13 2.25 150.13 1.75L150.13 1.75 150.18 1.3Q150.68-1.35 154.55-8.8 158.43-16.25 162.08-22.4L162.08-22.4 165.73-28.5 168.48-33.25Q170.53-39.1 171.63-39.1L171.63-39.1Q172.38-39.1 172.38-36.55L172.38-36.55Q170.83-17.95 170.83-15.3L170.83-15.3Q170.83-14.55 171.13-14.55 171.43-14.55 171.83-15.1L171.83-15.1Q172.48-15.95 173.63-17.4 174.78-18.85 178.03-22.6 181.28-26.35 184.15-29.35 187.03-32.35 190.43-35.1 193.83-37.85 196.03-38.45L196.03-38.45Q196.53-38.55 196.68-38.55L196.68-38.55Q197.28-38.55 197.28-38.1L197.28-38.1Q197.28-37.7 196.83-37.1ZM198.12-3.15L198.12-3.15Q193.97 0.65 192.42 0.65L192.42 0.65Q191.72 0.65 191.72-0.15L191.72-0.15Q191.72-1.15 192.6-3.2 193.47-5.25 194.37-6.8L194.37-6.8 195.27-8.35Q195.47-8.7 195.47-8.8 195.47-8.9 195.37-8.9L195.37-8.9Q195.17-8.9 194.62-8.35L194.62-8.35Q193.12-6.7 191.2-4.83 189.27-2.95 188.07-1.9L188.07-1.9 186.92-0.9Q184.97 0.6 183.92 0.6L183.92 0.6Q182.82 0.6 182.82-1.1L182.82-1.1Q182.82-1.95 183.3-3.7 183.77-5.45 184.02-6.05L184.02-6.05Q185.17-8.85 186.9-11.5 188.62-14.15 190.97-16.57 193.32-19 196.45-20.5 199.57-22 202.92-22L202.92-22Q205.72-22 205.72-21.15L205.72-21.15Q205.72-20.65 204.47-20.65L204.47-20.65Q199.87-20.65 195.85-16.73 191.82-12.8 189.32-7.7L189.32-7.7Q188.62-6.3 188.62-5.35L188.62-5.35Q188.62-4.8 188.97-4.8L188.97-4.8Q189.57-4.8 190.52-5.65L190.52-5.65Q191.12-6.2 192.15-7.1 193.17-8 195.47-10.55 197.77-13.1 199.12-15.3L199.12-15.3Q199.32-15.7 199.75-16.25 200.17-16.8 201.37-17.73 202.57-18.65 203.77-18.65L203.77-18.65Q204.42-18.65 204.42-18.3L204.42-18.3Q204.42-18.2 204.27-17.95L204.27-17.95Q204.07-17.55 203.15-15.95 202.22-14.35 201.42-12.93 200.62-11.5 199.72-9.83 198.82-8.15 198.3-6.95 197.77-5.75 197.77-5.35L197.77-5.35Q197.77-5.05 198.02-5.05L198.02-5.05Q198.77-5.05 201.67-7.95L201.67-7.95Q203.87-10.25 206.82-13.6L206.82-13.6Q206.97-13.75 207.07-13.75 207.17-13.75 207.17-13.55L207.17-13.55Q207.17-12.6 206.42-11.7L206.42-11.7Q201.52-6.25 198.12-3.15ZM218.82-4.85L218.82-4.85Q212.97 0.65 211.12 0.65L211.12 0.65Q210.27 0.65 210.27-0.25L210.27-0.25Q210.27-0.8 210.52-1.63 210.77-2.45 211.15-3.28 211.52-4.1 211.87-4.8 212.22-5.5 212.57-6.1 212.92-6.7 212.92-6.75L212.92-6.75Q213.67-8.1 215.17-10.53 216.67-12.95 217.57-14.53 218.47-16.1 218.47-16.45L218.47-16.45Q218.47-16.7 218.22-16.7L218.22-16.7 217.52-16.45Q215.22-14.8 212.02-11.33 208.82-7.85 206.77-5.2L206.77-5.2 204.72-2.6Q204.07-1.65 203.57-1.05 203.07-0.45 202.15 0.13 201.22 0.7 200.27 0.7L200.27 0.7Q199.57 0.7 199.57 0.3 199.57-0.1 200.52-2.02 201.47-3.95 202.42-5.7L202.42-5.7 203.37-7.4 208.27-16Q209.02-17.25 209.5-17.93 209.97-18.6 210.82-19.63 211.67-20.65 212.65-21.15 213.62-21.65 214.72-21.75L214.72-21.75Q215.12-21.75 215.12-21.4L215.12-21.4Q215.12-21.1 214.97-20.9L214.97-20.9Q213.82-19.1 211.45-14.95 209.07-10.8 208.42-9.55L208.42-9.55Q208.27-9.25 208.27-9.1L208.27-9.1Q208.27-9 208.37-9 208.47-9 208.87-9.3L208.87-9.3Q209.82-10.4 211.35-12.05 212.87-13.7 216.52-17.03 220.17-20.35 222.52-21.5L222.52-21.5Q223.07-21.75 223.57-21.75L223.57-21.75Q224.27-21.75 224.27-20.95L224.27-20.95Q223.87-18.6 220.42-12.9L220.42-12.9Q216.62-6.65 216.62-5.5L216.62-5.5Q216.62-5.1 216.97-5.1L216.97-5.1Q217.22-5.1 217.55-5.28 217.87-5.45 218.27-5.78 218.67-6.1 218.95-6.35 219.22-6.6 219.67-7.03 220.12-7.45 220.22-7.55L220.22-7.55Q222.32-9.65 225.77-13.6L225.77-13.6Q225.92-13.75 226.02-13.75 226.12-13.75 226.12-13.55L226.12-13.55Q226.12-12.6 225.37-11.7L225.37-11.7Q221.67-7.6 218.82-4.85ZM235.57-3.15L235.57-3.15Q231.42 0.65 229.87 0.65L229.87 0.65Q229.17 0.65 229.17-0.15L229.17-0.15Q229.17-1.15 230.04-3.2 230.92-5.25 231.82-6.8L231.82-6.8 232.72-8.35Q232.92-8.7 232.92-8.8 232.92-8.9 232.82-8.9L232.82-8.9Q232.62-8.9 232.07-8.35L232.07-8.35Q230.57-6.7 228.64-4.83 226.72-2.95 225.52-1.9L225.52-1.9 224.37-0.9Q222.42 0.6 221.37 0.6L221.37 0.6Q220.27 0.6 220.27-1.1L220.27-1.1Q220.27-1.95 220.74-3.7 221.22-5.45 221.47-6.05L221.47-6.05Q222.62-8.85 224.34-11.5 226.07-14.15 228.42-16.57 230.77-19 233.89-20.5 237.02-22 240.37-22L240.37-22Q243.17-22 243.17-21.15L243.17-21.15Q243.17-20.65 241.92-20.65L241.92-20.65Q237.32-20.65 233.29-16.73 229.27-12.8 226.77-7.7L226.77-7.7Q226.07-6.3 226.07-5.35L226.07-5.35Q226.07-4.8 226.42-4.8L226.42-4.8Q227.02-4.8 227.97-5.65L227.97-5.65Q228.57-6.2 229.59-7.1 230.62-8 232.92-10.55 235.22-13.1 236.57-15.3L236.57-15.3Q236.77-15.7 237.19-16.25 237.62-16.8 238.82-17.73 240.02-18.65 241.22-18.65L241.22-18.65Q241.87-18.65 241.87-18.3L241.87-18.3Q241.87-18.2 241.72-17.95L241.72-17.95Q241.52-17.55 240.59-15.95 239.67-14.35 238.87-12.93 238.07-11.5 237.17-9.83 236.27-8.15 235.74-6.95 235.22-5.75 235.22-5.35L235.22-5.35Q235.22-5.05 235.47-5.05L235.47-5.05Q236.22-5.05 239.12-7.95L239.12-7.95Q241.32-10.25 244.27-13.6L244.27-13.6Q244.42-13.75 244.52-13.75 244.62-13.75 244.62-13.55L244.62-13.55Q244.62-12.6 243.87-11.7L243.87-11.7Q238.97-6.25 235.57-3.15ZM246.22 1.45L251.27-8.35Q251.47-8.75 251.47-8.9L251.47-8.9 250.97-8.55Q249.42-6.75 247.39-4.85 245.37-2.95 244.12-1.9L244.12-1.9 242.87-0.9Q240.82 0.6 239.77 0.6L239.77 0.6Q238.77 0.6 238.77-0.85L238.77-0.85Q238.77-4.45 241.42-9.35 244.07-14.25 248.29-17.95 252.52-21.65 256.32-21.65L256.32-21.65Q257.07-21.65 257.59-21.48 258.12-21.3 258.34-21.15 258.57-21 258.62-21L258.62-21Q258.72-21 258.87-21.15L258.87-21.15Q259.17-21.55 259.64-22.15 260.12-22.75 261.27-23.78 262.42-24.8 263.12-24.8L263.12-24.8Q263.47-24.8 263.47-24.3L263.47-24.3Q263.47-23.6 262.77-22.2L262.77-22.2Q257.42-12.35 256.27-10.3L256.27-10.3Q255.87-9.55 254.44-7.08 253.02-4.6 252.42-3.55L252.42-3.55Q255.57-6.1 257.62-7.95L257.62-7.95Q259.82-10.25 262.77-13.6L262.77-13.6Q262.92-13.75 263.02-13.75 263.12-13.75 263.12-13.55L263.12-13.55Q263.12-12.6 262.37-11.7L262.37-11.7Q260.17-9.3 258.57-7.6L258.57-7.6Q256.47-5.4 251.07-1.2L251.07-1.2 249.77 1.2Q240.12 18.95 236.47 24.3L236.47 24.3Q236.12 24.85 235.57 25.63 235.02 26.4 233.77 27.73 232.52 29.05 231.77 29.05L231.77 29.05Q230.57 29.05 230.57 25.6L230.57 25.6Q230.57 20.5 234.22 14.5L234.22 14.5Q238.07 8.15 246.22 1.45L246.22 1.45ZM257.92-20L257.92-20Q257.97-20.05 257.97-20.2L257.97-20.2Q257.97-20.55 257.17-20.55L257.17-20.55Q255.17-20.55 252.02-17.45 248.87-14.35 246.57-10.65 244.27-6.95 244.27-5.2L244.27-5.2Q244.27-4.5 244.87-4.5L244.87-4.5Q245.42-4.5 246.27-5.2L246.27-5.2Q247.02-5.85 248.29-7.03 249.57-8.2 252.67-12.05 255.77-15.9 257.92-20ZM235.47 14.4L235.47 14.4Q235.07 15 234.52 15.98 233.97 16.95 233.02 19.33 232.07 21.7 232.07 23.3L232.07 23.3Q232.07 24.15 232.37 24.15L232.37 24.15Q232.62 24.15 233.12 23.68 233.62 23.2 233.97 22.7L233.97 22.7 234.32 22.2Q238.52 15.7 244.92 3.85L244.92 3.85Q238.62 9.3 235.47 14.4ZM271.76-16.95L271.76-16.95Q272.36-18.2 272.36-19.15L272.36-19.15Q272.36-19.95 271.86-19.95L271.86-19.95Q271.56-19.95 271.19-19.78 270.81-19.6 270.61-19.4L270.61-19.4 270.36-19.2Q268.81-17.85 266.49-14.28 264.16-10.7 264.16-9.7L264.16-9.7Q264.16-9.5 264.26-9.5L264.26-9.5Q264.56-9.5 265.59-10 266.61-10.5 268.54-12.35 270.46-14.2 271.76-16.95ZM269.51-5.5L269.51-5.5Q272.16-7.95 277.11-13.6L277.11-13.6Q277.26-13.75 277.36-13.75 277.46-13.75 277.46-13.55L277.46-13.55Q277.46-12.6 276.71-11.7L276.71-11.7Q273.01-7.6 270.16-4.85L270.16-4.85Q268.06-2.75 265.16-0.83 262.26 1.1 260.36 1.1L260.36 1.1Q258.06 1.1 258.06-2.1L258.06-2.1Q258.06-7.4 261.99-13.2 265.91-19 271.06-21.05L271.06-21.05Q273.21-21.95 274.96-21.95L274.96-21.95Q276.91-21.95 276.91-20.4L276.91-20.4Q276.91-17.5 272.81-13.75 268.71-10 263.61-8.05L263.61-8.05Q263.41-8 263.26-7.7L263.26-7.7Q262.51-5.65 262.51-4.05L262.51-4.05Q262.51-2.25 263.86-2.25L263.86-2.25Q266.01-2.25 269.51-5.5ZM284.91-10.35L284.91-10.35Q284.51-10.35 284.51-10.65L284.51-10.65Q284.51-10.8 284.66-11.05L284.66-11.05Q287.61-15.65 287.61-17.35L287.61-17.35Q287.61-17.8 287.26-17.8L287.26-17.8Q285.76-17.8 280.21-11L280.21-11Q278.56-8.9 277.14-6.65 275.71-4.4 275.16-3.2L275.16-3.2 274.56-2.05Q273.96-0.85 272.71 0.18 271.46 1.2 270.11 1.2L270.11 1.2Q269.41 1.2 269.41 0.85L269.41 0.85Q269.41 0.55 269.84-0.4 270.26-1.35 270.86-2.5 271.46-3.65 272.06-4.75 272.66-5.85 273.06-6.6L273.06-6.6 273.51-7.35 278.76-16.5Q281.81-22.25 285.16-22.25L285.16-22.25Q285.61-22.25 285.61-21.9L285.61-21.9Q285.61-21.45 283.44-18.18 281.26-14.9 280.91-14L280.91-14Q280.81-13.7 280.81-13.65L280.81-13.65Q280.81-13.55 280.91-13.55 281.01-13.55 281.26-13.8L281.26-13.8Q285.01-18.05 289.21-21.35L289.21-21.35Q289.46-21.6 290.31-22.08 291.16-22.55 291.81-22.55L291.81-22.55Q292.76-22.55 292.76-20.9L292.76-20.9Q292.76-19.1 291.56-16.6 290.36-14.1 288.31-12.2L288.31-12.2 288.11-12Q287.91-11.85 287.69-11.68 287.46-11.5 287.11-11.25 286.76-11 286.41-10.83 286.06-10.65 285.66-10.5 285.26-10.35 284.91-10.35Z" opacity="1" transform="matrix(1,0,0,1,0,0)" fill="#454545" class="wordmark-text-0" data-fill-palette-color="primary" id="text-0"></path></svg></g></svg></g></svg></g></svg></g><g transform="matrix(1,0,0,1,142.87425299304988,0)"><svg viewBox="0 0 109.77149401390018 130.61050189672628" height="130.61050189672628" width="109.77149401390018"><g><svg xmlns:x="http://ns.adobe.com/Extensibility/1.0/" xmlns:i="http://ns.adobe.com/AdobeIllustrator/10.0/" xmlns:graph="http://ns.adobe.com/Graphs/1.0/" xmlns="http://www.w3.org/2000/svg" xmlns:xlink="http://www.w3.org/1999/xlink" xmlns:a="http://ns.adobe.com/AdobeSVGViewerExtensions/3.0/" version="1.0" x="8" y="0" viewBox="17.692 4.999000449882608 64.61600000000001 90.0009995501174" enable-background="new 0 0 100 100" xml:space="preserve" height="130.61050189672628" width="93.77149401390018" class="icon-icon-0" data-fill-palette-color="accent" id="icon-0"><g fill="#454545" data-fill-palette-color="accent"><circle cx="50" cy="25.769" r="21" fill="#454545" data-fill-palette-color="accent"></circle><path d="M75.385 41.923h-5.803C64.926 47.561 57.883 51.154 50 51.154s-14.926-3.594-19.582-9.231h-5.803c-3.823 0-6.923 3.1-6.923 6.923L24.615 95h50.77l6.923-46.154C82.308 45.022 79.208 41.923 75.385 41.923zM50 92.692l-6.527-6.923 5.554-25.526c-1.438-0.421-2.488-1.747-2.488-3.32 0-1.911 1.55-3.462 3.462-3.462s3.462 1.551 3.462 3.462c0 1.573-1.051 2.899-2.488 3.32l5.554 25.526L50 92.692z" fill="#454545" data-fill-palette-color="accent"></path></g></svg><g></g></g></svg></g><g><rect width="142.69044693295987" height="8.522858068802266" y="121.08764382792401" x="252.64574700695005" fill="#454545" data-fill-palette-color="accent"></rect><rect width="142.69044693295987" height="8.522858068802266" y="121.08764382792401" x="0.18380606009000644" fill="#454545" data-fill-palette-color="accent"></rect><rect width="142.69044693295987" height="8.522858068802266" y="104.04192769031948" x="252.64574700695005" fill="#454545" data-fill-palette-color="accent"></rect><rect width="142.69044693295987" height="8.522858068802266" y="104.04192769031948" x="0.18380606009000644" fill="#454545" data-fill-palette-color="accent"></rect></g></svg></g><defs></defs></svg><rect width="395.1523878798199" height="247.2" fill="none" stroke="none" visibility="hidden"></rect></g></svg></g></svg>